# xmcd
#
# Track frame offsets:
#	150
#	26797
#	48394
#	65918
#	72210
#	93039
#	106427
#	130600
#	157246
#	167476
#	191028
#	222781
#	229067
#
# Disc length: 3271 seconds
#
# Revision: 0
# Processed by: cddbd v1.5.2PL0 Copyright (c) Steve Scherf et al.
# Submitted via: SynApp - FreeCDDB Version: 2.5
#
DISCID=b60cc50d
DTITLE=ASP - Requiembryo
DYEAR=2006
DGENRE=Gothic
TTITLE0=Offährte
TTITLE1=Coming Home
TTITLE2=De Profundis
TTITLE3=ParvorDiurnust (Fremde Träume 1)
TTITLE4=Duett (Das Minnelied der Incub)
TTITLE5=Schmetterflug
TTITLE6=Frostbrand
TTITLE7=Ich bin der wahre Satan
TTITLE8=Erinnerungen eines Fremden
TTITLE9=Raserei
TTITLE10=Das Erwachen
TTITLE11=Erinnerungen eines Fremden (reprise)
TTITLE12=Finger weg! Finger!
EXTD=
EXTT0=
EXTT1=
EXTT2=
EXTT3=
EXTT4=
EXTT5=
EXTT6=
EXTT7=
EXTT8=
EXTT9=
EXTT10=
EXTT11=
EXTT12=
PLAYORDER=
